<?xml version="1.0" encoding="utf-8"?>
<!-- Generator: Adobe Illustrator 16.0.0, SVG Export Plug-In . SVG Version: 6.00 Build 0)  -->
<!DOCTYPE svg PUBLIC "-//W3C//DTD SVG 1.1//EN" "http://www.w3.org/Graphics/SVG/1.1/DTD/svg11.dtd">
<svg version="1.1" id="Layer_1" xmlns="http://www.w3.org/2000/svg" xmlns:xlink="http://www.w3.org/1999/xlink" x="0px" y="0px"
	 width="600px" height="150px" viewBox="0 0 600 150" enable-background="new 0 0 600 150" xml:space="preserve">
<g>
	<path d="M32.205,65.305L16.466,36.341h10.101l10.709,21.256L47.62,36.341h10.101L41.86,65.467l13.833,25.436h8.803
		c-0.108,0.946-0.372,1.846-0.791,2.697c-0.419,0.852-0.947,1.589-1.582,2.211c-0.636,0.622-1.359,1.115-2.17,1.48
		c-0.811,0.365-1.663,0.548-2.556,0.548h-7.991L36.667,73.255L24.782,97.839H14.397L32.205,65.305z"/>
	<path d="M80.235,109.4c0,1.433-0.196,2.778-0.588,4.036s-0.933,2.353-1.623,3.286c-0.689,0.933-1.495,1.676-2.414,2.23
		c-0.92,0.555-1.907,0.832-2.961,0.832H70.54V55.366h28.437c1.055,0,2.042,0.271,2.961,0.812c0.919,0.542,1.73,1.278,2.434,2.211
		c0.703,0.933,1.257,2.022,1.663,3.266c0.406,1.244,0.608,2.583,0.608,4.016v25.232h8.56c-0.108,0.946-0.372,1.846-0.791,2.697
		c-0.42,0.852-0.947,1.589-1.582,2.211c-0.636,0.622-1.359,1.115-2.17,1.48s-1.663,0.548-2.556,0.548H86.726
		c-1.298,0-2.515-0.412-3.651-1.237c-1.136-0.824-2.096-1.927-2.88-3.306L80.235,109.4z M96.948,90.902v-28.6H80.195v28.6H96.948z"
		/>
	<path d="M122.261,50.904h9.736v4.462h30.586c-0.108,0.947-0.372,1.846-0.791,2.698c-0.419,0.852-0.94,1.589-1.562,2.211
		c-0.623,0.623-1.333,1.116-2.13,1.48c-0.798,0.365-1.616,0.548-2.454,0.548v28.6h9.411c-0.108,0.946-0.372,1.846-0.791,2.697
		c-0.419,0.852-0.953,1.589-1.602,2.211c-0.649,0.622-1.394,1.115-2.231,1.48c-0.838,0.365-1.731,0.548-2.677,0.548H153.7
		c-1.055,0-2.056-0.27-3.002-0.812c-0.947-0.54-1.771-1.277-2.474-2.211c-0.704-0.933-1.258-2.021-1.664-3.266
		c-0.405-1.243-0.608-2.582-0.608-4.016V62.303h-14.036v35.536h-9.655V50.904z"/>
	<path d="M173.983,65.67c0-1.433,0.203-2.779,0.608-4.037c0.406-1.257,0.954-2.353,1.643-3.286s1.494-1.663,2.414-2.19
		c0.919-0.527,1.907-0.792,2.961-0.792h33.994c-0.108,0.947-0.372,1.846-0.791,2.698c-0.419,0.852-0.947,1.589-1.582,2.211
		c-0.636,0.623-1.359,1.116-2.17,1.48c-0.811,0.365-1.663,0.548-2.556,0.548h-2.556c0.514,0.379,1.021,0.866,1.521,1.46
		c0.5,0.595,0.946,1.285,1.338,2.069c0.392,0.785,0.703,1.643,0.933,2.576c0.229,0.933,0.345,1.941,0.345,3.022v16.186
		c0,1.406-0.203,2.731-0.608,3.976s-0.96,2.326-1.663,3.245c-0.704,0.92-1.521,1.65-2.454,2.19
		c-0.933,0.542-1.927,0.812-2.982,0.812h-20.77c-1.055,0-2.042-0.27-2.961-0.812c-0.919-0.54-1.724-1.271-2.414-2.19
		c-0.689-0.919-1.237-2.001-1.643-3.245c-0.405-1.244-0.608-2.569-0.608-3.976V65.67z M200.391,90.902v-28.6h-16.713v28.6H200.391z"
		/>
	<path d="M225.704,65.67c0-1.433,0.203-2.772,0.608-4.016c0.406-1.244,0.954-2.333,1.643-3.266s1.507-1.669,2.454-2.211
		c0.946-0.541,1.947-0.812,3.002-0.812h18.742V33.339h9.654v57.563h7.708c-0.108,0.946-0.372,1.846-0.791,2.697
		c-0.419,0.852-0.947,1.589-1.582,2.211c-0.636,0.622-1.359,1.115-2.17,1.48c-0.811,0.365-1.663,0.548-2.556,0.548h-10.263v-4.422
		c-0.73,1.38-1.664,2.461-2.799,3.245c-1.136,0.785-2.339,1.177-3.61,1.177h-12.332c-1.055,0-2.056-0.27-3.002-0.812
		c-0.947-0.54-1.765-1.277-2.454-2.211c-0.689-0.933-1.237-2.021-1.643-3.266c-0.405-1.243-0.608-2.582-0.608-4.016V65.67z
		 M252.153,90.902v-28.6h-16.794v28.6H252.153z"/>
	<path d="M276.939,55.366h9.695v35.537h16.754V55.366h9.654v35.537h8.234c-0.108,0.946-0.372,1.846-0.791,2.697
		s-0.946,1.589-1.582,2.211s-1.358,1.115-2.17,1.48s-1.663,0.548-2.556,0.548h-7.626l-3.164-5.152
		c-0.299,0.758-0.677,1.454-1.137,2.09s-0.98,1.176-1.562,1.622c-0.582,0.446-1.19,0.799-1.826,1.055
		c-0.636,0.258-1.251,0.386-1.846,0.386h-12.373c-1.055,0-2.056-0.27-3.002-0.812c-0.947-0.54-1.765-1.277-2.454-2.211
		c-0.689-0.933-1.237-2.021-1.643-3.266c-0.405-1.243-0.608-2.582-0.608-4.016V55.366z"/>
	<path d="M328.66,65.66c0-1.431,0.203-2.769,0.608-4.012c0.406-1.243,0.954-2.331,1.644-3.262c0.689-0.932,1.507-1.668,2.454-2.209
		c0.946-0.54,1.947-0.811,3.002-0.811h21.337c1.055,0,2.049,0.271,2.981,0.812c0.934,0.542,1.751,1.278,2.455,2.211
		c0.702,0.933,1.257,2.022,1.663,3.266c0.405,1.244,0.608,2.583,0.608,4.016v7.545h-9.695V62.303h-17.403v28.6h28.396
		c-0.108,0.952-0.372,1.85-0.791,2.693c-0.42,0.843-0.947,1.578-1.582,2.203c-0.636,0.626-1.359,1.122-2.17,1.489
		c-0.812,0.367-1.664,0.551-2.556,0.551h-23.244c-1.055,0-2.056-0.27-3.002-0.811c-0.947-0.54-1.765-1.276-2.454-2.208
		c-0.689-0.933-1.237-2.026-1.644-3.283c-0.405-1.256-0.608-2.601-0.608-4.032V65.66z"/>
	<path d="M381.355,61.613h-3.245v-6.248h3.245V44.089l9.695-4.828v16.104h10.912v6.248h-10.912v29.289h14.522
		c-0.108,0.946-0.372,1.846-0.791,2.697c-0.42,0.852-0.953,1.589-1.603,2.211s-1.379,1.115-2.19,1.48s-1.663,0.548-2.556,0.548
		h-9.371c-1.055,0-2.056-0.27-3.002-0.812c-0.946-0.54-1.765-1.277-2.454-2.211c-0.689-0.933-1.237-2.021-1.643-3.266
		c-0.406-1.243-0.608-2.582-0.608-4.016V61.613z"/>
	<path d="M415.431,45.549c-0.946,0-1.832-0.175-2.657-0.527c-0.825-0.351-1.548-0.838-2.17-1.46s-1.109-1.345-1.46-2.17
		c-0.353-0.825-0.527-1.71-0.527-2.657c0-0.946,0.175-1.832,0.527-2.657c0.351-0.825,0.838-1.548,1.46-2.17
		c0.622-0.622,1.345-1.116,2.17-1.481c0.825-0.365,1.711-0.547,2.657-0.547s1.832,0.183,2.657,0.547
		c0.824,0.365,1.548,0.859,2.17,1.481c0.622,0.623,1.116,1.346,1.481,2.17c0.364,0.825,0.547,1.71,0.547,2.657
		c0,0.947-0.183,1.833-0.547,2.657c-0.365,0.825-0.859,1.548-1.481,2.17s-1.353,1.109-2.19,1.46
		C417.229,45.374,416.35,45.549,415.431,45.549z M410.685,55.366h9.695v35.537h8.681c-0.081,0.946-0.331,1.846-0.75,2.697
		c-0.42,0.852-0.947,1.589-1.582,2.211c-0.636,0.622-1.359,1.115-2.17,1.48c-0.812,0.365-1.664,0.548-2.556,0.548h-3.57
		c-1.055,0-2.056-0.27-3.002-0.812c-0.946-0.54-1.771-1.277-2.475-2.211c-0.703-0.933-1.257-2.021-1.663-3.266
		c-0.405-1.243-0.608-2.582-0.608-4.016V55.366z"/>
	<path d="M435.998,65.67c0-1.433,0.202-2.779,0.608-4.037c0.405-1.257,0.953-2.353,1.643-3.286s1.494-1.663,2.414-2.19
		c0.919-0.527,1.906-0.792,2.961-0.792h33.994c-0.108,0.947-0.372,1.846-0.791,2.698c-0.42,0.852-0.947,1.589-1.582,2.211
		c-0.636,0.623-1.359,1.116-2.17,1.48c-0.812,0.365-1.664,0.548-2.556,0.548h-2.556c0.513,0.379,1.021,0.866,1.521,1.46
		c0.5,0.595,0.946,1.285,1.339,2.069c0.392,0.785,0.703,1.643,0.934,2.576c0.229,0.933,0.345,1.941,0.345,3.022v16.186
		c0,1.406-0.203,2.731-0.608,3.976c-0.406,1.244-0.961,2.326-1.664,3.245c-0.703,0.92-1.521,1.65-2.454,2.19
		c-0.933,0.542-1.927,0.812-2.981,0.812h-20.77c-1.055,0-2.042-0.27-2.961-0.812c-0.92-0.54-1.725-1.271-2.414-2.19
		c-0.689-0.919-1.237-2.001-1.643-3.245c-0.406-1.244-0.608-2.569-0.608-3.976V65.67z M462.406,90.902v-28.6h-16.714v28.6H462.406z"
		/>
	<path d="M488.854,55.366h9.695V71.43l12.534-12.948c0.865-0.998,1.765-1.767,2.698-2.307c0.933-0.54,2.048-0.81,3.347-0.81
		c1.081,0,2.122,0.271,3.123,0.811c1,0.54,1.88,1.276,2.637,2.208c0.757,0.932,1.359,2.02,1.806,3.262
		c0.446,1.243,0.669,2.58,0.669,4.011v25.204h8.194c-0.108,0.974-0.372,1.88-0.791,2.718c-0.42,0.839-0.947,1.576-1.582,2.211
		c-0.636,0.636-1.359,1.136-2.17,1.501c-0.812,0.365-1.663,0.548-2.556,0.548h-3.164c-1.082,0-2.09-0.27-3.022-0.812
		c-0.933-0.54-1.744-1.277-2.434-2.211c-0.69-0.933-1.237-2.021-1.644-3.266c-0.405-1.243-0.608-2.582-0.608-4.016V62.871
		L498.55,80.396v17.443h-9.695V55.366z"/>
	<path d="M553.354,52.932h9.736c-0.244,0.595-0.427,1.183-0.548,1.765c-0.122,0.582-0.21,1.062-0.264,1.44
		c-0.081,1.001,0.081,1.907,0.486,2.718c0.406,0.812,0.953,1.589,1.644,2.333c0.689,0.744,1.486,1.481,2.393,2.211
		c0.906,0.73,1.832,1.501,2.779,2.313c1.081,0.866,2.177,1.859,3.286,2.981c1.108,1.123,2.109,2.353,3.002,3.691
		c0.892,1.339,1.615,2.759,2.17,4.26c0.554,1.501,0.805,3.063,0.75,4.685c-0.054,1.137-0.298,2.226-0.729,3.266
		c-0.434,1.042-1.001,1.975-1.704,2.8s-1.521,1.535-2.454,2.129c-0.934,0.596-1.914,1.028-2.941,1.299h15.091
		c-0.379,1.055-0.832,2.008-1.359,2.859c-0.527,0.853-1.122,1.589-1.784,2.211c-0.663,0.622-1.387,1.103-2.171,1.44
		s-1.596,0.507-2.434,0.507h-11.115c-1.244,0-2.278-0.196-3.104-0.588s-1.474-0.913-1.947-1.563
		c-0.473-0.648-0.798-1.399-0.974-2.251s-0.223-1.737-0.142-2.657c0.865-0.107,1.717-0.338,2.556-0.689
		c0.838-0.352,1.589-0.858,2.252-1.521c0.662-0.662,1.217-1.494,1.663-2.494c0.446-1.001,0.723-2.204,0.831-3.61
		c0.108-1.109,0-2.15-0.324-3.124s-0.758-1.893-1.298-2.759c-0.542-0.866-1.163-1.69-1.866-2.475
		c-0.704-0.783-1.394-1.541-2.069-2.271c-0.703-0.919-1.406-2.028-2.109-3.326c-0.703-1.298-1.203-2.88-1.501-4.746l-12.818,34.076
		h-10.02L553.354,52.932z"/>
</g>
</svg>
