<?xml version="1.0" encoding="utf-8"?>
<!-- Generator: Adobe Illustrator 16.0.0, SVG Export Plug-In . SVG Version: 6.00 Build 0)  -->
<!DOCTYPE svg PUBLIC "-//W3C//DTD SVG 1.1//EN" "http://www.w3.org/Graphics/SVG/1.1/DTD/svg11.dtd">
<svg version="1.1" id="Layer_1" xmlns="http://www.w3.org/2000/svg" xmlns:xlink="http://www.w3.org/1999/xlink" x="0px" y="0px"
	 width="600px" height="150px" viewBox="0 0 600 150" enable-background="new 0 0 600 150" xml:space="preserve">
<g>
	<path fill="#FFFFFF" d="M32.205,65.305L16.466,36.341h10.101l10.709,21.256L47.62,36.341h10.101L41.86,65.467l13.833,25.436h8.803
		c-0.108,0.947-0.372,1.847-0.791,2.697c-0.419,0.853-0.947,1.59-1.582,2.211c-0.636,0.623-1.359,1.115-2.17,1.48
		s-1.663,0.548-2.556,0.548h-7.991L36.667,73.255L24.782,97.839H14.397L32.205,65.305z"/>
	<path fill="#FFFFFF" d="M80.235,109.4c0,1.433-0.196,2.777-0.588,4.035s-0.933,2.354-1.623,3.287
		c-0.689,0.932-1.495,1.676-2.414,2.229c-0.92,0.555-1.907,0.832-2.961,0.832H70.54V55.366h28.437c1.055,0,2.042,0.271,2.961,0.812
		c0.919,0.542,1.73,1.278,2.434,2.211c0.703,0.933,1.257,2.022,1.663,3.266c0.406,1.244,0.608,2.583,0.608,4.016v25.231h8.56
		c-0.108,0.947-0.372,1.847-0.791,2.697c-0.42,0.853-0.947,1.59-1.582,2.211c-0.636,0.623-1.359,1.115-2.17,1.48
		s-1.663,0.548-2.556,0.548H86.726c-1.298,0-2.515-0.412-3.651-1.237c-1.136-0.824-2.096-1.927-2.88-3.306L80.235,109.4z
		 M96.948,90.902V62.302H80.195v28.601H96.948z"/>
	<path fill="#FFFFFF" d="M122.261,50.904h9.736v4.462h30.586c-0.108,0.947-0.372,1.846-0.791,2.698s-0.94,1.589-1.562,2.211
		c-0.623,0.623-1.333,1.116-2.13,1.48c-0.798,0.365-1.616,0.548-2.454,0.548v28.6h9.411c-0.108,0.947-0.372,1.847-0.791,2.697
		c-0.419,0.853-0.953,1.59-1.602,2.211c-0.649,0.623-1.394,1.115-2.231,1.48c-0.838,0.365-1.731,0.548-2.677,0.548H153.7
		c-1.055,0-2.056-0.271-3.002-0.812c-0.947-0.541-1.771-1.277-2.474-2.211c-0.704-0.934-1.258-2.021-1.664-3.267
		c-0.405-1.243-0.608-2.582-0.608-4.016V62.303h-14.036v35.536h-9.655V50.904z"/>
	<path fill="#FFFFFF" d="M173.983,65.67c0-1.433,0.203-2.779,0.608-4.037c0.406-1.257,0.954-2.353,1.643-3.286
		c0.689-0.933,1.494-1.663,2.414-2.19c0.919-0.527,1.907-0.792,2.961-0.792h33.994c-0.108,0.947-0.372,1.846-0.791,2.698
		s-0.947,1.589-1.582,2.211c-0.636,0.623-1.359,1.116-2.17,1.48c-0.811,0.365-1.663,0.548-2.556,0.548h-2.556
		c0.514,0.379,1.021,0.866,1.521,1.46c0.5,0.595,0.946,1.285,1.338,2.069c0.392,0.785,0.703,1.643,0.933,2.576
		c0.229,0.933,0.345,1.941,0.345,3.022v16.186c0,1.406-0.203,2.73-0.608,3.976c-0.405,1.245-0.96,2.326-1.663,3.245
		c-0.704,0.92-1.521,1.65-2.454,2.189c-0.933,0.543-1.927,0.813-2.982,0.813h-20.77c-1.055,0-2.042-0.27-2.961-0.813
		c-0.919-0.539-1.724-1.271-2.414-2.189c-0.689-0.919-1.237-2.001-1.643-3.245c-0.405-1.243-0.608-2.569-0.608-3.976L173.983,65.67
		L173.983,65.67z M200.391,90.902V62.302h-16.713v28.601H200.391z"/>
	<path fill="#FFFFFF" d="M225.704,65.67c0-1.433,0.203-2.772,0.608-4.016c0.406-1.244,0.954-2.333,1.643-3.266
		c0.689-0.933,1.507-1.669,2.454-2.211c0.946-0.541,1.947-0.812,3.002-0.812h18.742V33.339h9.654v57.563h7.708
		c-0.108,0.945-0.372,1.846-0.791,2.697s-0.947,1.588-1.582,2.211c-0.636,0.621-1.359,1.114-2.17,1.479
		c-0.811,0.364-1.663,0.548-2.556,0.548h-10.263v-4.422c-0.73,1.38-1.664,2.461-2.799,3.245c-1.136,0.784-2.339,1.177-3.61,1.177
		h-12.332c-1.055,0-2.056-0.27-3.002-0.813c-0.947-0.539-1.765-1.276-2.454-2.211c-0.689-0.933-1.237-2.021-1.643-3.266
		c-0.405-1.242-0.608-2.582-0.608-4.016L225.704,65.67L225.704,65.67z M252.153,90.902V62.302h-16.794v28.601H252.153z"/>
	<path fill="#FFFFFF" d="M276.939,55.366h9.695v35.536h16.755V55.366h9.653v35.536h8.234c-0.108,0.947-0.372,1.847-0.791,2.697
		c-0.419,0.852-0.946,1.59-1.582,2.211c-0.637,0.623-1.358,1.115-2.17,1.48c-0.813,0.365-1.663,0.548-2.557,0.548h-7.626
		l-3.164-5.151c-0.299,0.758-0.677,1.453-1.137,2.09c-0.46,0.636-0.98,1.176-1.563,1.621c-0.582,0.447-1.189,0.8-1.826,1.056
		c-0.636,0.258-1.251,0.386-1.846,0.386h-12.373c-1.055,0-2.056-0.27-3.002-0.813c-0.947-0.539-1.765-1.276-2.454-2.211
		c-0.689-0.933-1.237-2.021-1.643-3.266c-0.405-1.242-0.608-2.582-0.608-4.016V55.366H276.939z"/>
	<path fill="#FFFFFF" d="M328.66,65.66c0-1.431,0.203-2.769,0.607-4.012c0.406-1.243,0.954-2.331,1.645-3.262
		c0.688-0.932,1.507-1.668,2.454-2.209c0.946-0.54,1.947-0.811,3.002-0.811h21.337c1.055,0,2.049,0.271,2.98,0.812
		c0.935,0.542,1.752,1.278,2.455,2.211c0.702,0.933,1.258,2.022,1.663,3.266c0.405,1.244,0.608,2.583,0.608,4.016v7.545h-9.695
		V62.303h-17.402v28.599h28.396c-0.108,0.953-0.372,1.851-0.791,2.693c-0.42,0.844-0.947,1.578-1.582,2.203
		c-0.636,0.626-1.358,1.122-2.17,1.489c-0.812,0.366-1.664,0.551-2.556,0.551h-23.244c-1.055,0-2.057-0.271-3.002-0.812
		c-0.947-0.539-1.766-1.275-2.454-2.207c-0.689-0.934-1.237-2.026-1.645-3.283c-0.404-1.256-0.607-2.602-0.607-4.032L328.66,65.66
		L328.66,65.66z"/>
	<path fill="#FFFFFF" d="M381.355,61.613h-3.245v-6.248h3.245V44.089l9.694-4.828v16.104h10.912v6.248H391.05v29.29h14.522
		c-0.108,0.945-0.372,1.846-0.791,2.697c-0.42,0.852-0.953,1.588-1.604,2.211c-0.649,0.621-1.379,1.114-2.189,1.479
		c-0.812,0.364-1.663,0.548-2.557,0.548h-9.371c-1.055,0-2.056-0.27-3.002-0.813c-0.945-0.539-1.765-1.276-2.453-2.211
		c-0.689-0.933-1.237-2.021-1.644-3.266c-0.406-1.242-0.608-2.582-0.608-4.016v-25.92H381.355z"/>
	<path fill="#FFFFFF" d="M415.431,45.549c-0.945,0-1.832-0.175-2.656-0.527c-0.825-0.351-1.549-0.838-2.171-1.46
		c-0.621-0.622-1.108-1.345-1.46-2.17c-0.353-0.825-0.526-1.71-0.526-2.657c0-0.946,0.175-1.832,0.526-2.657
		c0.352-0.825,0.839-1.548,1.46-2.17c0.622-0.622,1.346-1.116,2.171-1.481c0.824-0.365,1.711-0.547,2.656-0.547
		c0.946,0,1.832,0.183,2.657,0.547c0.824,0.365,1.548,0.859,2.17,1.481c0.622,0.623,1.116,1.346,1.481,2.17
		c0.364,0.825,0.547,1.71,0.547,2.657c0,0.947-0.184,1.833-0.547,2.657c-0.365,0.825-0.859,1.548-1.481,2.17
		s-1.353,1.109-2.189,1.46C417.229,45.374,416.35,45.549,415.431,45.549z M410.685,55.366h9.695v35.536h8.681
		c-0.08,0.947-0.33,1.847-0.75,2.697c-0.42,0.853-0.946,1.59-1.582,2.211c-0.636,0.623-1.358,1.115-2.17,1.48
		s-1.664,0.548-2.556,0.548h-3.57c-1.055,0-2.056-0.271-3.002-0.812c-0.945-0.541-1.771-1.277-2.475-2.211
		c-0.703-0.934-1.257-2.021-1.663-3.267c-0.405-1.243-0.608-2.582-0.608-4.016V55.366L410.685,55.366z"/>
	<path fill="#FFFFFF" d="M435.998,65.67c0-1.433,0.202-2.779,0.608-4.037c0.404-1.257,0.952-2.353,1.643-3.286
		c0.69-0.933,1.494-1.663,2.414-2.19c0.919-0.527,1.906-0.792,2.961-0.792h33.994c-0.108,0.947-0.372,1.846-0.791,2.698
		c-0.42,0.852-0.947,1.589-1.582,2.211c-0.636,0.623-1.359,1.116-2.17,1.48c-0.813,0.365-1.664,0.548-2.557,0.548h-2.556
		c0.513,0.379,1.021,0.866,1.521,1.46c0.5,0.595,0.945,1.285,1.339,2.069c0.392,0.785,0.703,1.643,0.934,2.576
		c0.229,0.933,0.345,1.941,0.345,3.022v16.186c0,1.406-0.202,2.73-0.607,3.976c-0.406,1.244-0.961,2.326-1.664,3.245
		c-0.703,0.92-1.521,1.65-2.454,2.189c-0.933,0.543-1.927,0.813-2.981,0.813h-20.77c-1.055,0-2.042-0.27-2.961-0.813
		c-0.92-0.539-1.725-1.271-2.414-2.189s-1.237-2.001-1.643-3.245c-0.406-1.243-0.608-2.569-0.608-3.976L435.998,65.67L435.998,65.67
		z M462.406,90.902V62.302h-16.714v28.601H462.406z"/>
	<path fill="#FFFFFF" d="M488.854,55.366h9.695V71.43l12.534-12.948c0.865-0.998,1.765-1.767,2.698-2.307
		c0.933-0.54,2.048-0.81,3.347-0.81c1.081,0,2.122,0.271,3.123,0.811c1,0.54,1.88,1.276,2.637,2.208
		c0.757,0.932,1.359,2.02,1.807,3.262c0.445,1.243,0.669,2.58,0.669,4.011v25.204h8.193c-0.107,0.974-0.372,1.88-0.791,2.718
		c-0.42,0.839-0.946,1.575-1.582,2.211s-1.358,1.136-2.17,1.501s-1.663,0.548-2.556,0.548h-3.164c-1.082,0-2.09-0.271-3.021-0.812
		c-0.934-0.541-1.744-1.277-2.435-2.211c-0.689-0.934-1.237-2.021-1.644-3.267c-0.405-1.243-0.608-2.582-0.608-4.016V62.871
		L498.55,80.396v17.442h-9.694V55.366H488.854z"/>
	<path fill="#FFFFFF" d="M553.354,52.932h9.736c-0.244,0.595-0.427,1.183-0.548,1.765c-0.122,0.582-0.21,1.062-0.264,1.44
		c-0.081,1.001,0.081,1.907,0.485,2.718c0.406,0.812,0.953,1.589,1.645,2.333c0.688,0.744,1.486,1.481,2.393,2.211
		s1.832,1.501,2.779,2.313c1.081,0.866,2.177,1.859,3.286,2.981c1.107,1.123,2.108,2.353,3.002,3.691
		c0.892,1.339,1.615,2.759,2.17,4.261c0.554,1.5,0.805,3.063,0.75,4.685c-0.054,1.137-0.298,2.226-0.729,3.267
		c-0.434,1.041-1,1.975-1.703,2.799c-0.703,0.826-1.521,1.535-2.454,2.129c-0.935,0.597-1.914,1.028-2.941,1.3h15.091
		c-0.379,1.055-0.832,2.008-1.358,2.858c-0.527,0.854-1.122,1.59-1.784,2.211c-0.663,0.623-1.387,1.104-2.171,1.44
		s-1.597,0.507-2.435,0.507h-11.114c-1.244,0-2.278-0.195-3.104-0.588s-1.474-0.913-1.947-1.563
		c-0.473-0.648-0.798-1.399-0.974-2.252c-0.176-0.852-0.223-1.736-0.142-2.656c0.864-0.107,1.717-0.338,2.556-0.689
		c0.838-0.352,1.589-0.857,2.252-1.521c0.662-0.661,1.217-1.493,1.663-2.493c0.446-1.001,0.723-2.204,0.831-3.61
		c0.107-1.109,0-2.15-0.324-3.124s-0.758-1.893-1.298-2.759c-0.542-0.866-1.163-1.69-1.866-2.475
		c-0.704-0.783-1.394-1.541-2.068-2.271c-0.703-0.919-1.406-2.028-2.109-3.326c-0.703-1.298-1.203-2.88-1.501-4.746l-12.818,34.076
		h-10.02L553.354,52.932z"/>
</g>
</svg>
